<svg width="34" height="26" viewBox="0 0 34 26" fill="none" xmlns="http://www.w3.org/2000/svg">
<path d="M22.1882 14.4299V25.0588H15.0588V17.0886C15.0588 14.3122 13.7891 11.8344 11.8004 10.1975C11.4892 9.93959 11.1613 9.70133 10.8179 9.49251C10.504 9.29771 10.1761 9.11832 9.8383 8.96696C9.39122 8.76234 8.92874 8.59276 8.44522 8.46102C8.97779 7.9649 9.58042 7.53464 10.2321 7.19408C10.6385 6.97966 11.066 6.79746 11.5117 6.65871C11.9153 6.52277 12.3315 6.42327 12.7618 6.3574C13.1682 6.29713 13.5887 6.26209 14.0189 6.26209C18.5275 6.26209 22.1868 9.92137 22.1868 14.4299H22.1882Z" fill="#002818"/>
<path d="M12.2546 17.0855V25.0585H0V17.0855C0 13.7009 2.7427 10.9582 6.12728 10.9582C9.51186 10.9582 12.2546 13.7009 12.2546 17.0855Z" fill="#002818"/>
<path d="M33.5606 10.8867V25.0599H24.9948V14.4311C24.9948 8.6051 20.426 3.82184 14.6827 3.47988C16.6742 1.33982 19.5122 0 22.6655 0C28.6835 0 33.5592 4.87296 33.5592 10.8881L33.5606 10.8867Z" fill="#002818"/>
</svg>
